<svg xmlns="http://www.w3.org/2000/svg" viewBox="0 0 520 200" width="520" height="200">
  <defs>
    <style>
      @import url('https://fonts.cdnfonts.com/css/scrambled-tofu');
    </style>
  </defs>

  <!-- BIG "A" LETTER -->
  <text x="60" y="168" font-family="'Scrambled Tofu','Comic Sans MS','Comic Sans',cursive" font-size="180" font-weight="800" fill="#2563EB" letter-spacing="-5">A</text>

  <!-- BEAR - flat style, leaning on A from the left -->
  <g transform="translate(18, 42)">
    <!-- Body -->
    <ellipse cx="42" cy="105" rx="28" ry="32" fill="#D2A679"/>

    <!-- Left arm reaching toward A -->
    <ellipse cx="65" cy="88" rx="14" ry="8" fill="#8B6914" transform="rotate(-20, 65, 88)"/>

    <!-- Right arm down -->
    <ellipse cx="22" cy="100" rx="12" ry="7" fill="#8B6914" transform="rotate(15, 22, 100)"/>

    <!-- Left leg -->
    <ellipse cx="30" cy="132" rx="10" ry="7" fill="#8B6914"/>
    <!-- Right leg leaning -->
    <ellipse cx="56" cy="130" rx="10" ry="7" fill="#8B6914" transform="rotate(-10, 56, 130)"/>

    <!-- Head -->
    <circle cx="42" cy="55" r="30" fill="#D2A679"/>

    <!-- Ears -->
    <circle cx="18" cy="30" r="12" fill="#D2A679"/>
    <circle cx="18" cy="30" r="7" fill="#8B6914"/>
    <circle cx="66" cy="30" r="12" fill="#D2A679"/>
    <circle cx="66" cy="30" r="7" fill="#8B6914"/>

    <!-- Face - muzzle -->
    <ellipse cx="42" cy="64" rx="16" ry="12" fill="#E8CBA7"/>

    <!-- Eyes -->
    <circle cx="32" cy="50" r="4.5" fill="#0F2A45"/>
    <circle cx="52" cy="50" r="4.5" fill="#0F2A45"/>
    <!-- Eye shine -->
    <circle cx="33.5" cy="48.5" r="1.5" fill="#fff"/>
    <circle cx="53.5" cy="48.5" r="1.5" fill="#fff"/>

    <!-- Nose -->
    <ellipse cx="42" cy="60" rx="5" ry="3.5" fill="#0F2A45"/>

    <!-- Mouth -->
    <path d="M38 66 Q42 72 46 66" stroke="#0F2A45" stroke-width="1.5" fill="none" stroke-linecap="round"/>

    <!-- Belly patch -->
    <ellipse cx="42" cy="108" rx="16" ry="18" fill="#E8CBA7"/>
  </g>

  <!-- "rkadaşım" text connected to A -->
  <text x="128" y="128" font-family="'Scrambled Tofu','Comic Sans MS','Comic Sans',cursive" font-size="42" font-weight="700" fill="#0F2A45">rkadaşım</text>

  <!-- "Kelimeler" text below -->
  <text x="128" y="172" font-family="'Scrambled Tofu','Comic Sans MS','Comic Sans',cursive" font-size="42" font-weight="700" fill="#F5A623">Kelimeler</text>
</svg>
